<svg width="110" height="70" viewBox="0 0 110 70" fill="none" xmlns="http://www.w3.org/2000/svg">
<path fill-rule="evenodd" clip-rule="evenodd" d="M53.01 28.7618C53.63 28.1218 54.03 27.7418 54.39 27.3318C58.52 22.6418 62.56 17.8818 66.81 13.2718C70.58 9.18182 74.97 5.71182 79.93 2.84182C83.99 0.491819 88.44 0.37182 92.97 0.44182C93.26 0.44182 93.57 0.53182 93.84 0.63182C99.04 2.47182 104.17 4.44182 108.96 7.09182C109.21 7.23182 109.42 7.43182 109.73 7.67182C109.36 8.81182 108.41 9.09182 107.35 9.23182C105.79 9.45182 104.24 9.71182 102.67 9.88182C94.85 10.7518 87.68 13.2618 81.08 17.2118C76.29 20.0818 71.5 22.9718 66.73 25.8718C66.27 26.1518 65.91 26.5718 65.18 27.2218C67.71 27.2218 69.78 27.3318 71.84 27.2018C76.03 26.9218 79.14 29.2018 83.1 30.8918C81.4 31.8518 80.18 32.6118 78.88 33.2518C76.49 34.4218 74.07 35.5518 71.63 36.6118C69.67 37.4618 67.65 38.2218 65.64 38.9618C58.68 41.5518 51.63 43.9618 44.75 46.7318C34.88 50.7018 27.42 57.3518 21.42 65.5218C20.5 66.7718 19.42 67.9218 18.5 69.0118C15.08 68.0618 11.93 67.2118 8.79 66.3018C8.23 66.1418 7.76 65.7318 7.23 65.4718C5.06 64.4018 2.88 63.3518 0.540001 62.2118C0.980001 61.0618 2.04 60.2818 3.1 59.5618C8.07 56.1918 12.89 52.5918 18.13 49.6218C24.44 46.0318 30.21 41.8618 35.92 37.5418C36.98 36.7418 37.11 36.0218 36.75 34.8618C34.02 26.0118 29.22 18.2018 22.91 11.1618C22.3 10.4818 21.47 9.96182 20.69 9.43182C16.18 6.41182 10.84 5.46182 5.59 4.28182C4.42 4.02182 3.24 3.83182 2.07 3.59182C1.2 3.41182 0.3 3.22182 0 2.17182C0.93 1.43182 2.08 1.51182 3.18 1.39182C6.68 1.00182 10.17 0.60182 13.67 0.20182C14.27 0.13182 14.86 -0.0181808 15.46 0.0018192C18.83 0.121819 22.28 -0.108181 25.55 0.481819C36.97 2.56182 45.63 8.05182 49.74 18.5718C50.79 21.2518 51.44 24.0518 52.28 26.8018C52.46 27.3718 52.69 27.9218 53.01 28.7718V28.7618Z" fill="#443A35"/>
</svg>
