<svg width="70" height="82" viewBox="0 0 70 82" fill="none" xmlns="http://www.w3.org/2000/svg">
<path fill-rule="evenodd" clip-rule="evenodd" d="M30.7594 6.18832C29.3944 7.39271 28.2282 9.20257 27.158 11.3301C25.1362 15.3535 23.9315 21.3258 23.7168 26.9209C20.91 24.8298 16.7607 22.9273 13.265 22.914L13.1977 22.9107C10.2083 22.9107 6.91133 24.2442 4.37048 25.7827C9.32722 15.6381 18.3724 7.89233 30.7594 6.18832Z" fill="#266058"/>
<path fill-rule="evenodd" clip-rule="evenodd" d="M39.9369 6.18832C41.3018 7.39271 42.6412 9.20257 43.7113 11.3301C45.7363 15.3535 46.7648 21.3258 46.9795 26.9209C49.7863 24.8298 53.9356 22.9273 57.4312 22.914L57.4986 22.9107C60.488 22.9107 63.785 24.2442 66.3258 25.7827C61.3691 15.6381 52.3239 7.89233 39.9369 6.18832Z" fill="#266058"/>
<path fill-rule="evenodd" clip-rule="evenodd" d="M35.2503 6.18774C35.2668 6.18774 35.2833 6.18774 35.2998 6.18774C38.0504 6.21413 40.679 8.42386 42.7106 12.4178C44.6103 16.1612 45.7548 21.0193 45.9823 26.2632C42.9019 23.8721 39.1355 22.5661 35.1811 22.5496H35.1118C31.1541 22.5496 27.3811 23.8424 24.2875 26.2303C24.5216 20.9929 25.6859 16.148 27.6251 12.4112C29.7095 8.40076 32.414 6.18774 35.247 6.18774H35.2503Z" fill="#429482"/>
<path fill-rule="evenodd" clip-rule="evenodd" d="M32.7676 32.7888C34.8526 33.3124 36.2288 34.0915 37.2634 35.1228L38.7002 33.0889L40.003 34.2671C43.3397 31.5626 48.4006 30.9081 52.229 32.8686C56.0223 34.8099 58.4395 39.2259 58.2543 43.4789C58.2543 43.4789 59.2344 43.1628 59.4484 43.4789C59.79 43.993 59.4292 45.2319 59.4484 45.1329C61.4185 45.6949 63.2257 46.838 64.5093 48.4281C66.7763 51.2316 67.3384 55.341 65.9047 58.6521C64.471 61.9601 61.0928 64.3644 57.4975 64.6326C54.4546 64.8657 51.5744 63.7322 48.5187 62.5412C45.447 61.3406 42.2732 60.0953 38.9077 60.3635C37.5507 60.4689 36.2416 60.8169 34.9771 61.1554C34.7568 61.2129 34.5397 61.2703 34.3194 61.3278L31.6756 63.2436C31.0083 64.1472 30.2261 64.9902 29.4438 65.8076C25.7718 63.5917 22.1509 65.0924 21.2026 65.7118C20.5449 66.1397 19.8934 66.5611 19.2899 67.0082C18.6897 67.4488 18.1213 67.8671 17.5082 68.2151C14.3823 70.0032 10.2283 69.6871 7.40566 67.4488C4.58304 65.2105 3.33449 61.2352 4.36263 57.7836C4.87671 56.0625 7.79839 51.4072 7.79839 51.4072C7.58446 50.8675 7.44716 50.2928 7.40566 49.7053C7.21088 47.004 8.76904 44.1654 11.3713 42.4731C12.9838 41.4226 14.7846 40.8926 16.4769 40.6499L17.0357 39.1333H17.8914C18.0734 37.9455 18.5746 36.7704 19.3921 35.8061C22.2466 32.4279 27.7514 31.85 32.5058 32.7409C32.5793 32.7536 32.7037 32.7856 32.7676 32.7888Z" fill="#FF7E99"/>
<path fill-rule="evenodd" clip-rule="evenodd" d="M35.2791 5.08168H35.2754C32.4555 5.08328 29.7582 7.28399 27.6828 11.281C25.7538 14.9962 24.5953 19.8196 24.3629 25.028L24.3616 25.0584L24.3856 25.0397C26.6208 23.3153 29.4041 22.1555 32.8949 21.6531C33.1401 21.6184 33.3885 21.6915 33.5758 21.8539C33.7603 22.0145 33.8674 22.2461 33.8701 22.4905C33.8717 22.5038 33.872 22.5169 33.872 22.5303C33.872 22.952 33.5648 23.3113 33.1481 23.3767C29.2449 23.9908 26.3304 25.3995 24.0571 27.6053C23.9844 27.6761 23.9 27.733 23.8073 27.7744C23.6957 27.8241 23.576 27.8492 23.4561 27.8492C23.3415 27.8492 23.2272 27.8265 23.1195 27.7811C23.0311 27.7437 22.9499 27.6919 22.8789 27.628C20.0977 25.1287 16.511 23.7363 12.7742 23.7029H12.495C8.77903 23.7363 5.21527 25.1105 2.43868 27.5848C2.2648 27.7397 2.03375 27.8179 1.8027 27.8011C1.52865 27.7816 1.28023 27.6328 1.13386 27.4013C0.987216 27.1691 0.95917 26.8815 1.05907 26.6256C3.71786 19.8213 8.30999 14.0175 14.3392 9.84182C20.2495 5.74838 27.1446 3.51776 34.3351 3.36337V2.01287C34.3351 1.45382 34.789 1 35.348 1C35.9068 1 36.3606 1.45382 36.3606 2.01287V3.37486C43.502 3.60911 50.3312 5.89075 56.1734 10.0042C62.1697 14.2269 66.7167 20.0665 69.3226 26.8911C69.4241 27.1571 69.388 27.456 69.2262 27.69C69.0915 27.8847 68.8845 28.0137 68.6548 28.0511C68.552 28.0642 68.4593 28.0661 68.373 28.0613C68.1732 28.0517 67.9822 27.9737 67.8337 27.839C65.0272 25.2988 61.3959 23.8917 57.6107 23.877L57.5485 23.8768C53.8274 23.8768 50.2414 25.2257 47.4445 27.6785C47.3748 27.7397 47.2958 27.7891 47.2103 27.8251C47.1029 27.8703 46.9889 27.8927 46.8751 27.8927C46.7778 27.8927 46.6806 27.8764 46.589 27.8438C46.4482 27.807 46.3155 27.7322 46.207 27.6197C46.207 27.6197 43.3199 24.5862 41.2498 23.9029C38.7905 23.0912 37.4309 24.1636 37.3938 24.1935L37.373 24.2109C36.6141 24.8327 36.1745 25.7978 36.1704 26.9282C36.1646 28.5116 36.9841 30.3704 38.8741 32.1854C42.7891 28.9083 48.6495 28.1334 53.2381 30.4813C57.7715 32.8003 60.5614 37.912 60.2714 42.9461C62.6382 43.6022 64.8149 44.9647 66.3542 46.871C69.0357 50.1888 69.6987 55.0483 68.0052 58.9636C66.3107 62.8783 62.3145 65.7222 58.0605 66.0401C54.6025 66.2954 51.3227 65.0251 48.1567 63.7889C45.0286 62.5685 42.0786 61.4151 38.9671 61.652C37.7106 61.7498 36.4947 62.0751 35.2075 62.4183C34.6215 62.5746 34.0226 62.7343 33.415 62.8722C32.4336 64.4972 31.1106 65.8737 29.8248 67.2108C29.5357 67.5118 29.2465 67.8121 28.962 68.1147C27.3911 69.7871 25.7284 71.8133 25.3486 74.1903C25.0181 76.2628 26.0441 78.8287 28.1225 79.3343C28.5755 79.4444 28.853 79.9014 28.743 80.3547C28.6495 80.7409 28.3041 81 27.9232 81C27.8572 81 27.7891 80.9923 27.7221 80.976C24.6559 80.2299 23.2307 76.7378 23.6805 73.924C24.1289 71.1141 25.976 68.8247 27.7301 66.9573L27.9272 66.7487C25.4065 65.3536 22.6697 66.2383 21.4266 66.9488C20.8034 67.3051 20.2252 67.7306 19.6121 68.1812C18.9847 68.6425 18.3362 69.1193 17.6318 69.5218C13.8848 71.6638 8.90484 71.2869 5.51978 68.6011C2.13738 65.9164 0.638373 61.1514 1.87402 57.0134C2.50412 54.903 3.81856 53.0463 5.52592 51.6819C5.20352 50.9263 4.99731 50.1119 4.93721 49.2678C4.69842 45.9442 6.57058 42.4731 9.71284 40.4284C11.3983 39.3311 13.4294 38.6142 15.7054 38.3035C15.8961 36.7209 16.5385 35.1506 17.6158 33.8784C20.9664 29.9161 27.1734 29.1842 32.5487 30.1931L32.5506 30.1933C32.5506 30.1933 32.936 30.2775 33.2053 30.5072C33.4045 30.6773 33.5432 30.9204 33.4614 31.2556C33.4118 31.4589 33.3041 31.6493 33.1054 31.7709C32.9187 31.8849 32.6446 31.9408 32.2448 31.866C27.4104 30.9623 21.8099 31.535 18.9051 34.9698C18.1225 35.8948 17.6249 37.0121 17.424 38.1484C18.0843 38.1174 18.7611 38.1187 19.4527 38.1521C20.641 38.209 21.9029 38.4796 22.9152 39.0298C23.9486 39.5915 24.723 40.4431 24.9148 41.6485C25.0507 42.5025 24.8178 43.3901 24.2537 44.1479C23.6297 44.9879 22.6601 45.5686 21.6601 45.703C20.0032 45.9305 18.216 45.122 17.0273 43.5928C16.2428 42.5821 15.7952 41.3317 15.6771 40.0154C14.0015 40.2703 12.2266 40.8082 10.6349 41.8443C8.00495 43.556 6.42741 46.4207 6.62267 49.1468C6.66086 49.684 6.77919 50.208 6.96163 50.7054C8.28034 49.9495 9.75184 49.4623 11.2778 49.3239C13.4075 49.1305 15.7815 50.016 16.2127 52.038C16.3988 52.9066 16.1707 53.8004 15.5665 54.5517C14.7526 55.5649 13.346 56.227 11.9806 56.2361H11.9795C9.78256 56.2185 7.68976 55.0197 6.36491 53.1716C5.02696 54.3047 3.99859 55.8039 3.49323 57.4974C2.45044 60.9898 3.71599 65.0114 6.57031 67.2776C9.4265 69.5432 13.6297 69.8629 16.7936 68.0541C17.4184 67.6972 17.9977 67.2712 18.6108 66.82C19.235 66.3606 19.9052 65.9265 20.5815 65.4861C21.5671 64.8434 25.2967 63.2915 29.1006 65.5248C29.8042 64.7876 30.5024 64.0322 31.1189 63.2306C28.8065 63.385 26.8542 62.8294 25.5176 61.624C24.4532 60.6621 23.8167 59.2187 23.7761 57.6614C23.7355 56.1042 24.2956 54.6292 25.3093 53.6137C26.3227 52.5984 27.7982 52.0481 29.3533 52.0724H29.3538C30.9116 52.1104 32.3564 52.7431 33.3199 53.8068C35.0895 55.7583 35.1351 58.596 34.352 60.8972L34.7721 60.7855C36.0804 60.4364 37.4333 60.0761 38.837 59.9674C42.3145 59.6925 45.5954 60.9749 48.7707 62.2145C51.8887 63.4315 54.8269 64.5931 57.935 64.3546C61.5786 64.0827 65.0026 61.6461 66.4541 58.2923C67.9053 54.9385 67.3369 50.7754 65.0406 47.9328C63.7702 46.3609 61.995 45.2214 60.0553 44.6369C60.032 44.7521 60.0072 44.8672 59.9805 44.9815C59.3709 47.6184 57.9117 49.5349 55.9912 50.2494C54.7038 50.7273 53.1134 50.4874 51.9352 49.6348C50.9501 48.9219 50.4129 47.8847 50.4559 46.7922C50.5411 44.5817 52.7317 43.1446 54.879 42.7172C56.1002 42.4736 57.3564 42.4437 58.5886 42.6043C58.7139 38.3345 56.2744 33.9323 52.4681 31.9854C48.6351 30.0235 43.5888 30.6437 40.199 33.2937C41.644 34.3859 43.0247 35.9808 43.0795 38.0797C43.1326 40.1466 41.7511 42.413 39.4428 42.4843C37.2098 42.5775 35.6317 40.4866 35.508 38.5092C35.3777 36.437 36.5345 34.6388 37.5327 33.4972L37.577 33.4462L37.5851 33.4374L37.6924 33.3302C33.5026 29.2689 33.9585 24.8982 36.3123 22.9539C36.4279 22.8511 38.3338 21.2081 41.7656 22.3409C43.1214 22.7886 44.8023 24.1107 45.9723 25.1431L45.9688 25.0632C45.7404 19.8437 44.6036 15.0104 42.7109 11.2869C40.6886 7.30883 38.0674 5.10893 35.3304 5.08195L35.3309 4.94305C35.3307 4.94305 35.3304 4.94305 35.3301 4.94305L35.3304 5.08195L35.2791 5.08168ZM29.2085 53.6219H29.2072V53.7611L29.2085 53.6219ZM29.3183 53.6227C29.3178 53.6227 29.3172 53.6227 29.317 53.6227L29.3164 53.7619L29.3183 53.6227ZM29.2072 53.7611C28.154 53.7611 27.1745 54.1377 26.5062 54.8076C25.8147 55.5 25.4378 56.5249 25.4658 57.6173C25.4944 58.7106 25.9247 59.7139 26.6507 60.3696C28.2916 61.851 30.8595 61.6395 32.245 61.3884L32.3163 61.375C32.3433 61.3227 32.37 61.2698 32.3965 61.2166C33.3308 59.3116 33.6006 56.6322 32.0679 54.9417C31.4116 54.2178 30.4084 53.7894 29.3164 53.7619H29.3138L29.2072 53.7611ZM57.6144 22.2893H57.6152L57.6158 22.1502C60.7548 22.1625 63.7966 23.0343 66.4359 24.6466L66.4773 24.6719L66.456 24.6284C61.4659 14.4668 51.7049 7.30776 40.5959 5.5184L40.5476 5.51066L40.5841 5.54298C41.944 6.73909 43.1842 8.40771 44.2499 10.5045C46.284 14.5058 47.4918 19.6877 47.7047 25.2502L47.7055 25.2761L47.7269 25.2612C50.5895 23.244 54.0143 22.1502 57.5482 22.1502H57.6139L57.6144 22.2893ZM12.6342 21.9755L12.7111 21.9757C16.2842 21.9918 19.7361 23.1232 22.6056 25.1931L22.627 25.2083L22.6281 25.1821C22.8479 19.6377 24.079 14.474 26.1504 10.485C27.2448 8.37753 28.5189 6.70383 29.9148 5.50906L29.9524 5.477L29.9036 5.48448C18.8311 7.19478 9.0611 14.2355 3.98684 24.2983L3.96521 24.341L4.00661 24.3169C6.60477 22.792 9.57582 21.9755 12.6342 21.9755ZM11.9432 54.5461H11.9712C12.8185 54.54 13.755 54.1086 14.2499 53.4935C14.5336 53.1395 14.641 52.7693 14.5603 52.3906C14.4714 51.9728 14.1757 51.6555 13.7753 51.4284C13.1414 51.0689 12.2482 50.9343 11.4298 51.0069C10.1295 51.1247 8.87626 51.5433 7.75494 52.1924C8.76541 53.5931 10.3248 54.5461 11.9432 54.5461ZM38.9347 34.4641C38.8909 34.5122 38.8474 34.5608 38.8044 34.6097C38.0204 35.5067 37.0994 36.8903 37.1937 38.4037C37.2373 39.092 37.5939 39.8188 38.1235 40.2903C38.4684 40.5975 38.8875 40.7959 39.3424 40.7959L39.3896 40.7957C40.6362 40.7569 41.4226 39.3765 41.3895 38.1235C41.3481 36.5 40.0136 35.2342 38.9347 34.4641ZM17.3457 39.845C17.4347 40.8467 17.7702 41.7933 18.3621 42.5564C19.1658 43.5901 20.3739 44.1703 21.4357 44.0285C21.9939 43.9534 22.5404 43.6201 22.8984 43.1395C23.1847 42.7541 23.3111 42.3195 23.2467 41.9146C23.1583 41.3593 22.7915 40.9364 22.2872 40.6199C21.4955 40.1231 20.3683 39.8878 19.3715 39.8397C18.7566 39.8106 18.0717 39.8052 17.3457 39.845ZM57.0743 44.1925C56.4482 44.1925 55.8232 44.2518 55.2091 44.3738C54.3386 44.5475 53.419 44.9452 52.8121 45.5253C52.4232 45.8972 52.1638 46.3443 52.1438 46.8571C52.1165 47.5765 52.6246 48.0476 52.9264 48.2661C53.6449 48.7867 54.641 48.9499 55.4017 48.6652C57.381 47.9291 58.1089 45.5753 58.3346 44.6006C58.3591 44.4946 58.3818 44.3877 58.4029 44.2806C57.9622 44.2224 57.5183 44.1925 57.0743 44.1925Z" fill="#153632"/>
<path d="M35.3304 5.08195C38.0674 5.10893 40.6886 7.30883 42.7109 11.2869C44.6036 15.0104 45.7404 19.8437 45.9688 25.0633L45.9723 25.1431C44.8023 24.1107 43.1214 22.7886 41.7656 22.3409C38.3338 21.2081 36.4279 22.8511 36.3123 22.9539C33.9585 24.8982 33.5026 29.2689 37.6924 33.3303L37.5851 33.4374L37.577 33.4462L37.5327 33.4972C36.5345 34.6388 35.3777 36.437 35.508 38.5092C35.6317 40.4866 37.2098 42.5775 39.4428 42.4843C41.7511 42.413 43.1326 40.1466 43.0795 38.0797C43.0247 35.9808 41.644 34.3859 40.199 33.2937C43.5888 30.6437 48.6351 30.0235 52.4681 31.9854C56.2744 33.9323 58.7139 38.3345 58.5886 42.6043C57.3564 42.4437 56.1002 42.4736 54.879 42.7172C52.7317 43.1446 50.5411 44.5817 50.4559 46.7922C50.4129 47.8847 50.9501 48.9219 51.9352 49.6348C53.1134 50.4874 54.7038 50.7273 55.9912 50.2494C57.9117 49.5349 59.3709 47.6184 59.9805 44.9815C60.0072 44.8672 60.032 44.7521 60.0553 44.6369C61.995 45.2214 63.7702 46.3609 65.0406 47.9328C67.3369 50.7754 67.9053 54.9385 66.4541 58.2923C65.0026 61.6461 61.5786 64.0827 57.935 64.3546C54.8269 64.5931 51.8887 63.4315 48.7707 62.2145C45.5954 60.9749 42.3145 59.6925 38.837 59.9674C37.4333 60.0761 36.0804 60.4364 34.7721 60.7855L34.352 60.8972C35.1351 58.596 35.0895 55.7583 33.3199 53.8068C32.3564 52.7431 30.9116 52.1104 29.3538 52.0724H29.3533C27.7982 52.0481 26.3227 52.5984 25.3093 53.6137C24.2956 54.6292 23.7355 56.1042 23.7761 57.6614C23.8167 59.2187 24.4532 60.6621 25.5176 61.624C26.8542 62.8294 28.8065 63.385 31.1189 63.2306C30.5024 64.0322 29.8042 64.7876 29.1006 65.5248C25.2967 63.2915 21.5671 64.8434 20.5815 65.4861C19.9052 65.9265 19.235 66.3606 18.6108 66.82C17.9977 67.2712 17.4184 67.6972 16.7936 68.0541C13.6297 69.8629 9.4265 69.5432 6.57031 67.2776C3.71599 65.0114 2.45044 60.9898 3.49323 57.4974C3.99859 55.8039 5.02696 54.3047 6.36491 53.1716C7.68976 55.0197 9.78256 56.2185 11.9795 56.2361H11.9806C13.346 56.227 14.7526 55.5649 15.5665 54.5517C16.1707 53.8004 16.3988 52.9066 16.2127 52.038C15.7815 50.016 13.4075 49.1305 11.2778 49.3239C9.75184 49.4623 8.28034 49.9495 6.96163 50.7054C6.77919 50.208 6.66086 49.684 6.62267 49.1468C6.42741 46.4207 8.00495 43.556 10.6349 41.8443C12.2266 40.8082 14.0015 40.2703 15.6771 40.0154C15.7952 41.3317 16.2428 42.5821 17.0273 43.5928C18.216 45.122 20.0032 45.9305 21.6601 45.703C22.6601 45.5686 23.6297 44.9879 24.2537 44.1479C24.8178 43.3901 25.0507 42.5025 24.9148 41.6485C24.723 40.4431 23.9486 39.5915 22.9152 39.0298C21.9029 38.4796 20.641 38.209 19.4527 38.1521C18.7611 38.1187 18.0843 38.1174 17.424 38.1484C17.6249 37.0121 18.1225 35.8948 18.9051 34.9698C21.8099 31.535 27.4104 30.9623 32.2448 31.866C32.6446 31.9408 32.9187 31.8849 33.1054 31.7709C33.3041 31.6493 33.4118 31.4589 33.4614 31.2556C33.5432 30.9204 33.4045 30.6773 33.2053 30.5072C32.936 30.2775 32.5506 30.1933 32.5506 30.1933L32.5487 30.1931C27.1734 29.1842 20.9664 29.9161 17.6158 33.8784C16.5385 35.1506 15.8961 36.7209 15.7054 38.3035C13.4294 38.6142 11.3983 39.3311 9.71284 40.4284C6.57058 42.4731 4.69842 45.9442 4.93721 49.2678C4.99731 50.1119 5.20352 50.9263 5.52592 51.6819C3.81856 53.0463 2.50412 54.903 1.87402 57.0134C0.638373 61.1514 2.13738 65.9164 5.51978 68.6011C8.90484 71.2869 13.8848 71.6638 17.6318 69.5218C18.3362 69.1193 18.9847 68.6425 19.6121 68.1812C20.2252 67.7306 20.8034 67.3051 21.4266 66.9488C22.6697 66.2383 25.4065 65.3536 27.9272 66.7487L27.7301 66.9573C25.976 68.8247 24.1289 71.1141 23.6805 73.924C23.2307 76.7378 24.6559 80.2299 27.7221 80.976C27.7891 80.9923 27.8572 81 27.9232 81C28.3041 81 28.6495 80.7409 28.743 80.3547C28.853 79.9014 28.5755 79.4444 28.1225 79.3343C26.0441 78.8287 25.0181 76.2628 25.3486 74.1903C25.7284 71.8133 27.3911 69.7871 28.962 68.1147C29.2465 67.8121 29.5357 67.5118 29.8248 67.2108C31.1106 65.8737 32.4336 64.4972 33.415 62.8722C34.0226 62.7343 34.6215 62.5746 35.2075 62.4183C36.4947 62.0751 37.7106 61.7498 38.9671 61.652C42.0786 61.4151 45.0286 62.5685 48.1567 63.7889C51.3227 65.0251 54.6025 66.2954 58.0605 66.0401C62.3145 65.7222 66.3107 62.8783 68.0052 58.9636C69.6987 55.0483 69.0357 50.1888 66.3542 46.871C64.8149 44.9647 62.6382 43.6022 60.2714 42.9461C60.5614 37.912 57.7715 32.8003 53.2381 30.4813C48.6495 28.1334 42.7891 28.9083 38.8741 32.1854C36.9841 30.3704 36.1646 28.5116 36.1704 26.9282C36.1745 25.7978 36.6141 24.8327 37.373 24.2109L37.3938 24.1935C37.4309 24.1636 38.7905 23.0912 41.2498 23.9029C43.3199 24.5862 46.207 27.6197 46.207 27.6197C46.3155 27.7322 46.4482 27.807 46.589 27.8438C46.6806 27.8764 46.7778 27.8927 46.8751 27.8927C46.9889 27.8927 47.1029 27.8703 47.2103 27.8252C47.2958 27.7891 47.3748 27.7397 47.4445 27.6785C50.2414 25.2257 53.8274 23.8768 57.5485 23.8768L57.6107 23.877C61.3959 23.8917 65.0272 25.2988 67.8337 27.839C67.9822 27.9737 68.1732 28.0517 68.373 28.0613C68.4593 28.0661 68.552 28.0642 68.6548 28.0511C68.8845 28.0137 69.0915 27.8847 69.2262 27.69C69.388 27.456 69.4241 27.1571 69.3226 26.8911C66.7167 20.0665 62.1697 14.2269 56.1734 10.0042C50.3312 5.89075 43.502 3.60911 36.3606 3.37486V2.01287C36.3606 1.45382 35.9068 1 35.348 1C34.789 1 34.3351 1.45382 34.3351 2.01287V3.36337C27.1446 3.51776 20.2495 5.74838 14.3392 9.84182C8.30999 14.0175 3.71786 19.8213 1.05907 26.6256C0.95917 26.8815 0.987216 27.1691 1.13386 27.4013C1.28023 27.6328 1.52865 27.7816 1.8027 27.8011C2.03375 27.8179 2.2648 27.7397 2.43868 27.5848C5.21527 25.1105 8.77903 23.7363 12.495 23.7029H12.7742C16.511 23.7363 20.0977 25.1287 22.8789 27.628C22.9499 27.6919 23.0311 27.7437 23.1195 27.7811C23.2272 27.8265 23.3415 27.8492 23.4561 27.8492C23.576 27.8492 23.6957 27.8241 23.8073 27.7744C23.9 27.733 23.9844 27.6761 24.0571 27.6053C26.3304 25.3995 29.2449 23.9908 33.1481 23.3767C33.5648 23.3113 33.872 22.952 33.872 22.5303C33.872 22.5169 33.8717 22.5038 33.8701 22.4905C33.8674 22.2461 33.7603 22.0145 33.5758 21.8539C33.3885 21.6915 33.1401 21.6184 32.8949 21.6531C29.4041 22.1555 26.6208 23.3153 24.3856 25.0397L24.3616 25.0584L24.3629 25.028C24.5953 19.8196 25.7538 14.9962 27.6828 11.281C29.7582 7.28399 32.4555 5.08328 35.2754 5.08168H35.2791L35.3304 5.08195ZM35.3304 5.08195L35.3309 4.94305C35.3307 4.94305 35.3304 4.94305 35.3301 4.94305L35.3304 5.08195ZM29.2072 53.7611V53.6219H29.2085L29.2072 53.7611ZM29.2072 53.7611C28.154 53.7611 27.1745 54.1377 26.5062 54.8076C25.8147 55.5 25.4378 56.5249 25.4658 57.6173C25.4944 58.7106 25.9247 59.7139 26.6507 60.3696C28.2916 61.851 30.8595 61.6395 32.245 61.3884L32.3163 61.375C32.3433 61.3227 32.37 61.2698 32.3965 61.2166C33.3308 59.3116 33.6006 56.6322 32.0679 54.9417C31.4116 54.2178 30.4084 53.7894 29.3164 53.7619M29.2072 53.7611L29.3138 53.7619H29.3164M29.3164 53.7619L29.317 53.6227C29.3172 53.6227 29.3178 53.6227 29.3183 53.6227L29.3164 53.7619ZM57.6144 22.2893H57.6152L57.6158 22.1502C60.7548 22.1625 63.7966 23.0343 66.4359 24.6466L66.4773 24.6719L66.456 24.6284C61.4659 14.4668 51.7049 7.30776 40.5959 5.5184L40.5475 5.51066L40.5841 5.54298C41.944 6.73909 43.1842 8.40771 44.2499 10.5045C46.284 14.5058 47.4918 19.6877 47.7047 25.2502L47.7055 25.2761L47.7269 25.2612C50.5895 23.244 54.0143 22.1502 57.5482 22.1502H57.6139L57.6144 22.2893ZM12.6342 21.9755L12.7111 21.9757C16.2842 21.9918 19.7361 23.1232 22.6056 25.1931L22.627 25.2083L22.6281 25.1821C22.8479 19.6377 24.079 14.474 26.1504 10.485C27.2448 8.37753 28.5189 6.70383 29.9148 5.50906L29.9524 5.477L29.9036 5.48448C18.8311 7.19477 9.0611 14.2355 3.98684 24.2983L3.96521 24.341L4.00661 24.3169C6.60477 22.792 9.57581 21.9755 12.6342 21.9755ZM11.9432 54.5461H11.9712C12.8185 54.54 13.755 54.1086 14.2499 53.4935C14.5336 53.1395 14.641 52.7693 14.5603 52.3906C14.4714 51.9728 14.1757 51.6555 13.7753 51.4284C13.1414 51.0689 12.2482 50.9343 11.4298 51.0069C10.1295 51.1247 8.87626 51.5433 7.75494 52.1924C8.76541 53.5931 10.3248 54.5461 11.9432 54.5461ZM38.9347 34.4641C38.8909 34.5122 38.8474 34.5608 38.8044 34.6097C38.0204 35.5067 37.0994 36.8903 37.1937 38.4037C37.2373 39.092 37.5939 39.8188 38.1235 40.2903C38.4684 40.5975 38.8875 40.7959 39.3424 40.7959L39.3896 40.7957C40.6362 40.7569 41.4226 39.3765 41.3895 38.1235C41.3481 36.5 40.0136 35.2342 38.9347 34.4641ZM17.3457 39.845C17.4347 40.8467 17.7702 41.7933 18.3621 42.5564C19.1658 43.5901 20.3739 44.1703 21.4357 44.0285C21.9939 43.9534 22.5404 43.6201 22.8984 43.1395C23.1847 42.7541 23.3111 42.3195 23.2467 41.9146C23.1583 41.3593 22.7915 40.9364 22.2872 40.6199C21.4955 40.1231 20.3683 39.8878 19.3715 39.8397C18.7566 39.8106 18.0717 39.8052 17.3457 39.845ZM57.0743 44.1925C56.4482 44.1925 55.8232 44.2518 55.2091 44.3738C54.3386 44.5475 53.419 44.9452 52.8121 45.5253C52.4232 45.8972 52.1638 46.3443 52.1438 46.8571C52.1165 47.5765 52.6246 48.0476 52.9264 48.2661C53.6449 48.7867 54.641 48.9499 55.4017 48.6652C57.381 47.9291 58.1089 45.5753 58.3346 44.6006C58.3591 44.4946 58.3818 44.3877 58.4029 44.2806C57.9622 44.2224 57.5183 44.1925 57.0743 44.1925Z" stroke="#153632" stroke-width="0.5"/>
</svg>
