<svg width="764" height="1175" viewBox="0 0 764 1175" fill="none" xmlns="http://www.w3.org/2000/svg">
<path fill-rule="evenodd" clip-rule="evenodd" d="M12.0566 480.913C23.8866 457.644 32.0197 433.533 33.7097 407.001C35.0828 385.838 39.9415 364.675 44.9059 343.827C49.0253 326.35 57.5808 310.346 71.5232 298.237C77.5438 293.078 85.2543 288.13 92.7537 286.866C122.857 282.128 150.741 285.919 171.127 311.293C177.148 318.769 183.379 326.034 188.766 333.825C219.82 379.31 252.563 423.742 280.87 470.911C303.263 508.288 331.148 541.454 357.871 575.252C380.474 603.89 408.359 628.422 434.976 653.797C444.377 662.746 456.312 669.59 468.037 675.276C479.127 680.645 491.591 680.014 501.414 670.748C510.498 662.325 508.913 651.06 505.005 641.689C497.717 624.106 490.112 606.417 479.972 590.519C444.482 534.821 396.423 490.179 345.513 449.011C304.213 415.634 263.02 382.468 230.382 340.248C205.666 308.345 189.189 273.389 184.541 232.222C180.95 200.425 189.189 175.05 214.222 155.466C239.149 135.883 259.957 114.825 269.886 82.9225C276.962 60.2854 298.932 52.3889 320.902 57.6533C335.584 61.1278 345.829 71.2354 351.744 84.0806C361.884 105.981 371.813 128.197 378.89 151.255C409.521 251.489 441.208 351.303 481.029 448.379C501.097 497.233 518.525 547.14 536.904 596.731C545.565 620.105 556.444 642.11 576.724 661.062C587.603 638.53 588.765 631.581 585.068 613.471C583.167 604.101 581.16 594.73 578.625 585.57C550.001 482.914 521.06 380.363 492.542 277.706C480.183 233.064 467.192 188.527 468.776 141.252C469.621 117.668 468.776 93.7671 473.001 70.709C479.233 35.5426 505.745 -0.255523 555.705 10.168C590.033 17.3277 625.311 12.1685 659.956 5.21947C670.202 3.21899 680.447 0.797394 690.798 0.165663C708.966 -1.0978 724.809 4.79845 735.16 20.1706C764.735 64.0759 768.96 110.297 743.188 158.098C732.942 177.05 721.324 195.371 709.705 213.48C681.292 257.491 658.583 304.134 642.317 353.83C634.817 376.677 631.754 399.841 632.177 423.636C632.177 429.532 633.022 435.534 632.177 441.325C624.149 488.178 624.361 535.242 627.318 582.201C628.48 601.047 631.754 620.315 637.775 638.214C643.795 656.324 654.886 658.64 670.413 646.953C683.405 637.161 697.03 626.948 706.853 614.208C738.118 573.567 768.221 531.978 798.007 490.179C826.314 450.38 846.911 406.79 862.226 360.779C865.712 350.25 869.937 339.827 874.901 329.929C895.287 289.815 929.298 272.021 973.238 272.231C981.687 272.231 991.933 274.232 998.27 279.18C1019.61 296.026 1041.05 313.399 1050.03 340.458C1054.89 354.778 1062.91 366.464 1073.79 376.888C1088.68 391.102 1103.58 405.421 1116.99 421.004C1145.3 453.643 1143.19 495.232 1113.08 526.503C1086.47 554.089 1054.04 571.883 1018.13 583.885C995.524 591.466 972.393 597.573 950 605.996C919.158 617.578 888.527 628.738 855.572 633.16C840.257 635.266 825.152 640.846 810.47 646.216C781.741 656.745 752.588 666.642 725.126 679.908C705.903 689.174 688.474 702.756 671.575 716.022C663.97 722.024 659.533 731.921 651.717 742.555C671.363 751.399 687.841 759.507 704.741 766.456C745.617 782.986 788.923 789.093 832.652 792.883C895.604 798.253 954.225 816.362 1009.68 845.633C1039.46 861.426 1055.94 884.695 1054.78 917.861C1054.15 935.023 1049.92 953.132 1043.27 969.136C1030.91 998.617 1017.81 1027.47 1011.9 1059.16C1005.56 1093.38 988.342 1104.75 953.274 1102.12C919.58 1099.59 895.181 1081.37 874.479 1057.58C827.159 1003.35 779.839 949.131 733.999 893.644C720.373 877.114 704.846 865.111 685.728 856.477C668.512 848.686 654.675 856.267 655.942 874.692C656.999 889.748 660.167 905.542 666.082 919.229C675.166 939.971 687.629 959.239 698.403 979.244C721.746 1022.52 744.772 1065.79 768.01 1109.06C774.981 1122.02 782.586 1134.54 788.712 1147.92C801.704 1176.45 807.513 1204.35 797.901 1237.41C789.768 1265.31 777.621 1287.42 755.863 1305.85C742.977 1316.8 736.956 1331.96 731.358 1347.65C719.739 1380.29 688.158 1390.5 659.428 1371.44C638.092 1357.33 626.262 1336.8 619.819 1312.48C613.376 1288.37 606.193 1264.47 598.905 1240.57C584.751 1194.14 570.915 1147.49 570.809 1098.22C570.809 1065.05 571.76 1031.89 573.344 998.722C575.351 957.449 580.843 916.176 571.548 875.324C569.858 867.954 571.126 859.215 563.838 853.95C541.657 868.901 535.531 875.113 533.524 891.223C530.249 916.808 527.292 942.498 526.13 968.188C525.179 990.299 526.658 1012.41 527.926 1034.52C531.2 1088.95 534.157 1143.39 538.911 1197.61C541.023 1222.46 546.832 1246.99 551.374 1271.52C555.705 1295.11 549.896 1316.59 539.122 1337.75C528.559 1358.49 512.927 1369.34 489.267 1368.71C466.769 1368.07 451.454 1357.76 442.687 1337.54C440.363 1332.17 438.145 1326.7 435.504 1321.43C423.569 1297.74 410.788 1275 387.34 1259.84C369.067 1248.05 357.131 1229.94 347.308 1210.88C338.541 1193.93 334.95 1175.61 339.809 1157.29C347.731 1127.28 355.441 1096.85 367.588 1068.32C386.389 1024.2 397.902 978.507 407.092 931.969C409.098 921.967 409.838 911.333 408.993 901.225C407.303 881.22 402.867 877.535 382.375 877.851C328.296 878.693 278.124 893.434 231.333 921.019C208.835 934.286 186.02 947.026 163.205 959.976C144.932 970.4 126.131 975.769 105.851 965.767C81.5575 953.764 58.9539 940.182 51.3489 911.649C50.187 907.437 49.5533 903.015 49.342 898.593C48.1802 868.48 46.8071 838.262 46.3846 808.045C45.6453 756.558 72.157 726.657 123.807 718.865C173.028 711.495 222.143 711.6 269.991 723.919C317.945 736.343 365.264 751.505 412.584 765.929C436.666 773.194 460.432 781.407 484.303 789.303C492.647 792.041 501.942 793.62 505.639 784.46C507.963 778.88 506.167 769.404 502.576 764.56C496.555 756.559 488.422 749.294 479.55 744.45C456.207 731.816 433.181 717.707 408.042 709.81C374.559 699.387 343.717 683.909 312.347 669.274C301.784 664.326 290.271 660.957 278.864 658.114C261.013 653.692 242.846 650.007 224.678 646.427C204.398 642.426 184.224 636.53 163.733 635.371C121.589 633.055 82.6138 618.631 42.6879 608.207C18.0774 601.784 5.29675 583.043 1.81116 558.406C-1.99133 531.662 -0.406982 505.656 12.3735 480.597L12.0566 480.913Z" fill="#EDE7DB"/>
</svg>
