<svg width="20" height="20" viewBox="0 0 20 20" fill="none" xmlns="http://www.w3.org/2000/svg">
<path d="M6.01925 4.19319C6.01904 4.62791 5.84613 5.04475 5.53858 5.352C5.23103 5.65924 4.81402 5.83173 4.37929 5.83151C3.94456 5.83129 3.52773 5.65839 3.22048 5.35084C2.91324 5.04328 2.74075 4.62627 2.74097 4.19155C2.74118 3.75682 2.91409 3.33998 3.22164 3.03274C3.52919 2.72549 3.9462 2.55301 4.38093 2.55322C4.81566 2.55344 5.23249 2.72634 5.53974 3.0339C5.84699 3.34145 6.01947 3.75846 6.01925 4.19319ZM6.06843 7.0453H2.79014V17.3063H6.06843V7.0453ZM11.2481 7.0453H7.98623V17.3063H11.2153V11.9217C11.2153 8.92212 15.1247 8.64346 15.1247 11.9217V17.3063H18.362V10.8071C18.362 5.75037 12.5758 5.93887 11.2153 8.42218L11.2481 7.0453Z" fill="#252525"/>
</svg>
