<svg width="20" height="20" viewBox="0 0 20 20" fill="none" xmlns="http://www.w3.org/2000/svg">
<g clip-path="url(#clip0_57_259)">
<path d="M14.5668 8.0937H12.8457H12.2311V7.47902V5.57351V4.95884H12.8457H14.1366C14.4746 4.95884 14.7512 4.71296 14.7512 4.34416V1.08636C14.7512 0.748285 14.5054 0.47168 14.1366 0.47168H11.893C9.465 0.47168 7.77464 2.19278 7.77464 4.7437V7.41755V8.03223H7.15996H5.07005C4.63978 8.03223 4.24023 8.3703 4.24023 8.86205V11.0749C4.24023 11.5052 4.57831 11.9047 5.07005 11.9047H7.09849H7.71317V12.5194V18.6969C7.71317 19.1272 8.05124 19.5267 8.54299 19.5267H11.432C11.6164 19.5267 11.7701 19.4345 11.893 19.3116C12.0159 19.1887 12.1081 18.9735 12.1081 18.7891V12.5501V11.9354H12.7535H14.1366C14.5361 11.9354 14.8434 11.6896 14.9049 11.3208V11.29V11.2593L15.3352 9.13865C15.3659 8.92352 15.3352 8.67764 15.1508 8.43177C15.0893 8.2781 14.8127 8.12443 14.5668 8.0937Z" fill="#252525"/>
</g>
<defs>
<clipPath id="clip0_57_259">
<rect width="19.6697" height="19.6697" fill="white" transform="translate(0 0.165039)"/>
</clipPath>
</defs>
</svg>
