<svg width="20" height="20" viewBox="0 0 20 20" fill="none" xmlns="http://www.w3.org/2000/svg">
<g clip-path="url(#clip0_57_270)">
<path d="M19.1831 5.35212C18.968 4.5223 18.3225 3.87689 17.4927 3.66175C16.0175 3.26221 10.0551 3.26221 10.0551 3.26221C10.0551 3.26221 4.09273 3.26221 2.6175 3.66175C1.78768 3.87689 1.14227 4.5223 0.927129 5.35212C0.527588 6.85808 0.527588 9.93147 0.527588 9.93147C0.527588 9.93147 0.527588 13.0356 0.927129 14.5108C1.14227 15.3406 1.78768 15.9861 2.6175 16.2012C4.09273 16.6007 10.0551 16.6007 10.0551 16.6007C10.0551 16.6007 16.0175 16.6007 17.4927 16.2012C18.3225 15.9861 18.968 15.3406 19.1831 14.5108C19.5826 13.0356 19.5826 9.93147 19.5826 9.93147C19.5826 9.93147 19.5826 6.85808 19.1831 5.35212ZM8.14961 12.7897V7.07322L13.0978 9.93147L8.14961 12.7897Z" fill="#252525"/>
</g>
<defs>
<clipPath id="clip0_57_270">
<rect width="19.6697" height="19.6697" fill="white" transform="translate(0.220215 0.0961914)"/>
</clipPath>
</defs>
</svg>
