<svg width="358" height="245" viewBox="0 0 358 245" fill="none" xmlns="http://www.w3.org/2000/svg">
<path fill-rule="evenodd" clip-rule="evenodd" d="M115.04 244.6C142.082 241.65 168.158 234.928 192.882 223.66C207.562 216.986 221.107 208.668 232.19 196.747C238.322 190.146 245.107 184.125 251.819 178.08C260.149 170.584 269.107 163.668 280.238 160.936C293.976 157.574 307.859 154.818 321.791 152.279C330.821 150.635 339.609 148.458 347.674 144.227C356.269 139.705 359.408 131.75 357.428 121.255C356.124 114.291 351.44 110.495 341.951 108.778C340.503 108.512 339.03 108.174 337.557 108.15C318.845 107.618 300.447 109.721 282.555 115.259C264.35 120.893 248.173 130.299 234.073 142.873C219.031 156.317 204.23 170.027 189.502 183.786C176.705 195.755 162.339 205.041 145.1 209.393C141.454 210.312 137.591 210.844 133.824 210.772C129.068 210.675 125.422 207.749 124.746 204.243C123.901 199.89 126.412 197.327 129.647 194.909C134.187 191.524 138.774 188.114 142.734 184.149C155.965 170.946 171.635 161.854 189.55 156.341C191.168 155.858 192.882 155.471 194.307 154.624C205.993 147.781 230.717 127.349 245.445 104.789C260.173 82.2281 260.946 57.6607 258.556 48.3754C256.262 39.5253 234.483 34.6167 225.381 34.8102C210.846 35.1003 198.146 40.009 187.039 49.1492C171.949 61.5538 147.031 131.726 138.17 148.507C131.675 160.79 122.887 170.438 111.177 177.62C107.458 179.893 103.185 181.465 98.9595 182.674C93.4786 184.246 90.0984 182.045 89.9052 176.363C89.7362 171.672 90.1467 166.642 91.7885 162.314C95.1929 153.367 99.6838 144.831 103.523 136.03C108.183 125.342 108.762 100.243 117.334 79.9551C125.905 59.6677 139.064 39.1626 135.732 24.2191C132.762 10.9198 97.1003 -0.759331 83.3379 0.0386247C68.3923 0.909121 56.658 17.3276 57.1409 45.1835C57.6238 73.0395 72.4728 116.371 75.6357 129.743C78.6538 142.462 79.7886 155.229 75.853 168.045C74.525 172.373 72.8591 176.314 67.3299 178.152C59.0725 169.254 51.1289 160.307 46.4207 149.232C42.8473 140.817 39.7567 132.161 36.9801 123.432C31.6441 106.747 26.5738 89.9659 24.2317 72.5317C23.4832 66.9944 21.938 61.5295 20.3928 56.1373C17.8575 47.3598 11.6524 42.6688 2.54983 41.6049C-6.72171 40.5167 -13.5063 44.3373 -18.118 52.0509C-21.7638 58.1202 -23.5505 64.8423 -22.8503 71.8305C-22.1743 78.6494 -21.0878 85.4924 -19.3735 92.1179C-16.6452 102.612 -13.4581 113.034 -6.89072 122.005C-0.854559 130.299 4.94015 138.81 11.6041 146.572C21.1654 157.671 31.451 168.141 41.3744 178.95C51.2979 189.734 59.3864 201.51 62.2837 216.164C63.008 219.839 64.4084 223.37 65.3984 226.972C67.7645 235.508 73.68 240.779 82.1789 242.182C92.9715 243.971 103.909 245.809 114.943 244.624L115.04 244.6Z" fill="#443A35"/>
</svg>
