<svg width="140" height="150" viewBox="0 0 140 150" fill="none" xmlns="http://www.w3.org/2000/svg">
<path fill-rule="evenodd" clip-rule="evenodd" d="M135.329 102.74C131.893 95.9232 126.098 90.6675 119.952 85.9397C115.391 82.4433 108.297 82.0915 104.067 88.6225C101.137 93.1084 98.3394 97.6824 95.5855 102.256C92.3249 107.666 87.7865 111.8 81.8602 114.505C76.8371 116.792 74.2154 115.714 71.8801 111.118C69.633 106.698 69.9414 102.432 72.2987 98.1881C73.4884 96.0331 74.8764 93.9221 76.3745 91.921C84.7463 80.7501 90.1659 68.4577 91.7741 54.9998C93.4265 41.278 90.5624 34.4172 78.2471 29.4914C72.497 27.2045 66.4605 27.6443 60.6003 29.0737C56.3924 30.1072 52.9555 32.4601 52.3827 37.1C51.854 41.366 50.9948 45.6541 50.8626 49.9201C50.5982 59.2659 51.0609 68.6336 50.4881 77.9793C50.2016 82.7512 48.6374 87.5669 47.0732 92.1848C45.8836 95.6593 41.2571 98.386 38.349 98.1881C35.3307 97.9902 30.7483 94.2739 30.1975 90.8654C29.6908 87.7868 29.6688 84.5104 30.1755 81.4318C30.6161 78.705 31.8498 76.0222 33.1717 73.4934C36.5645 67.0063 39.1861 60.2554 39.8691 53.1087C40.7944 43.4111 41.1249 33.6695 41.5875 23.95C41.6536 22.4986 41.3672 20.8714 40.6622 19.6179C36.939 13.1969 32.4447 7.28157 26.32 2.72965C20.1514 -1.84427 13.1014 -0.546843 8.87149 5.69831C7.59369 7.56746 6.5362 9.67849 5.91934 11.8115C2.37234 24.1479 -0.447624 36.6382 0.059089 49.4583C0.323461 56.3412 0.653925 63.2681 1.86563 70.019C4.00264 81.9595 11.0526 91.7671 18.8295 101.003C24.9762 108.304 31.7397 115.12 37.9744 122.355C45.9056 131.547 55.7975 138.144 67.4079 142.608C69.0602 143.246 70.7125 143.905 72.3428 144.587C81.4857 148.391 90.6946 150.876 101.181 149.711C110.346 148.699 118.74 146.17 126.803 142.256C131.981 139.749 135.55 135.857 138.105 130.887C140.551 126.115 139.758 121.387 140 116.352C138.502 111.778 137.533 106.962 135.374 102.674L135.329 102.74Z" fill="#EDE7DB"/>
</svg>
