<svg width="239" height="166" viewBox="0 0 239 166" fill="none" xmlns="http://www.w3.org/2000/svg">
<path fill-rule="evenodd" clip-rule="evenodd" d="M193.695 142.31C189.258 140.475 184.833 138.766 179.969 138.339C177.103 138.085 174.215 137.924 171.338 137.762C168.022 137.578 164.752 137.935 161.898 139.47C156.028 142.621 149.731 143.949 142.937 143.256C135.739 142.517 129.627 144.999 123.746 148.057C117.992 151.058 111.799 152.94 105.282 154.013C102.139 154.532 98.9618 154.036 95.8999 153.263C91.0934 152.062 86.7721 150.02 82.8436 147.319C82.0579 146.776 81.3762 146.118 80.3017 145.23C81.5033 144.803 82.289 144.387 83.1325 144.249C87.9622 143.452 92.7918 142.644 97.6446 142.021C100.66 141.629 103.734 141.49 106.784 141.363C111.371 141.179 115.138 139.332 118.662 136.977C121.319 135.2 123.827 133.226 126.588 131.576C128.402 130.491 130.47 129.648 132.562 129.048C139.61 127.04 146.773 126.786 153.995 128.333C154.226 128.379 154.492 128.275 154.977 128.217C149.003 122.943 142.718 118.638 133.775 119.238C131.475 119.388 129.165 119.653 126.888 120C122.96 120.611 119.055 121.292 115.149 122.031C107.801 123.416 100.441 124.801 93.9704 128.448C93.3464 128.794 92.6416 129.048 91.9599 129.279C86.437 131.195 80.9141 133.088 75.3911 134.992C72.7683 135.904 70.0531 136.239 67.2223 136.285C60.6826 136.389 54.2584 135.869 47.9036 134.438C42.4615 133.203 37.7127 130.941 33.611 127.594C32.2014 126.44 31.4157 125.159 32.5711 123.335C36.5457 124.074 40.3355 123.416 44.1253 122.1C48.9203 120.45 54.0273 121.027 59.0419 121.073C62.3695 121.108 65.6856 121.234 69.0016 121.119C70.4459 121.073 71.9364 120.669 73.2767 120.161C76.5119 118.938 79.7355 117.645 82.8552 116.214C88.5283 113.605 94.4556 112.924 100.683 114.125C102.59 114.494 104.485 114.875 106.368 115.267C107.581 115.521 107.581 115.544 108.91 114.459C107.951 113.236 106.403 112.601 104.958 112.382C100.036 111.632 96.7434 108.781 93.358 105.965C93.0229 105.688 92.6994 105.388 92.3874 105.088C88.6901 101.59 84.1146 101.29 79.7009 103.299C72.0404 106.796 64.3106 106.38 56.3728 104.707C52.1324 103.806 48.4582 101.856 45.1074 99.5014C41.6296 97.0661 37.6087 95.6234 33.5301 94.2499C31.8663 93.6843 30.4336 94.4346 28.9662 94.8385C27.1984 95.3233 25.523 96.0966 23.7552 96.5467C22.438 96.8814 21.0284 96.9507 19.6534 97.0661C17.9665 97.2046 16.788 96.5813 16.2103 94.8385C18.6944 92.1839 21.4328 89.587 25.419 88.2943C26.1123 88.0751 26.8055 87.8442 27.4872 87.5788C35.6561 84.3817 43.4205 84.5894 50.3531 89.991C53.0337 92.08 56.2111 93.442 59.1112 95.1963C62.4042 97.193 66.0322 96.7083 69.614 96.2812C73.5656 95.808 77.4825 95.1271 81.434 94.6769C82.7743 94.5269 84.1839 94.8039 85.7784 94.55C84.7385 94.0191 83.7217 93.4304 82.6472 92.9803C79.2156 91.526 75.7146 90.1872 72.3177 88.6752C69.1056 87.244 66.0206 85.6051 62.8201 84.1624C61.1794 83.4122 59.4347 82.8235 57.69 82.258C55.5063 81.554 53.2301 81.0692 51.1041 80.2728C48.0307 79.1186 44.7608 79.2225 41.5603 78.8994C37.6896 78.507 33.7265 78.4377 30.1447 76.9603C28.1689 76.1409 26.1007 75.1252 24.6564 73.7402C18.7869 68.1078 11.6117 64.3452 3.59304 61.6791C2.72647 61.3905 1.89456 61.0443 1.07421 60.6634C-0.0234441 60.1671 -0.0465526 59.2553 0.0227729 58.3204C0.103653 57.2701 0.981775 56.9931 1.91767 56.8315C6.95532 55.9313 11.8774 56.116 16.6724 57.9049C18.6367 58.6436 20.624 59.3476 22.6229 60.0055C25.9505 61.102 28.9893 62.5678 31.7507 64.6107C36.592 68.1886 42.5771 69.8968 48.3426 71.9512C53.6576 72.0551 58.3024 73.6709 62.5659 77.2143C62.3002 75.1483 61.5954 73.8787 60.3706 72.713C58.3717 70.7855 56.5693 68.708 54.5704 66.7805C52.04 64.3222 50.7113 61.4021 50.1451 58.205C48.9897 51.6839 44.911 46.7095 39.3534 42.6468C34.6393 39.1958 31.924 34.9022 31.4157 29.6161C30.6762 21.9409 28.8275 14.4503 27.1984 6.91349C26.7477 4.80135 26.1238 2.64306 26.7246 0C27.9263 0.53092 28.9546 0.830997 29.7865 1.36192C33.5994 3.80877 35.7716 7.30591 37.6203 11.0224C39.8156 15.4313 40.4164 20.1634 41.283 24.8263C42.2998 30.2855 44.7262 35.1331 48.4582 39.542C50.5033 41.9658 52.5022 44.4473 54.3393 46.998C56.9621 50.6336 58.4179 54.6848 59.1227 58.9321C59.4925 61.1135 60.567 62.9256 62.1731 64.5876C64.4608 66.9421 66.5406 69.4698 68.9208 71.7435C70.7694 73.4978 71.7169 75.5753 72.5834 77.7337C73.6464 80.3767 75.1485 82.7889 77.2514 84.8895C77.8637 85.5012 78.7072 85.9283 79.4467 86.4361C79.6662 86.2976 79.8742 86.1476 80.0937 86.0091C79.7355 85.3396 79.5507 84.5317 78.9961 84.0124C76.0035 81.1616 74.825 77.7105 74.4552 73.9595C74.1202 70.5778 72.8261 67.4615 71.1738 64.4029C68.7359 59.8786 65.8358 55.6197 62.4966 51.5685C59.1574 47.5174 57.4589 42.8891 56.6039 37.9608C55.8991 33.9327 54.8939 29.9393 54.062 25.9343C53.8193 24.7686 53.2185 23.4528 54.6513 22.5641C55.5178 22.0216 56.5577 22.6564 57.7709 24.4223C59.0188 26.2459 60.2435 28.0811 61.3527 29.9624C64.5301 35.3293 67.8 40.65 70.7348 46.1208C72.4679 49.3525 73.6118 52.8266 75.033 56.1852C75.3911 57.0162 75.7146 57.8703 76.2115 58.6436C77.4593 60.5595 78.7765 62.4293 80.1053 64.299C82.1157 67.1383 82.9823 70.2546 83.4675 73.5555C83.9413 76.7757 84.8194 79.9612 85.5935 83.1467C85.917 84.474 86.8183 85.4897 88.1701 86.2168C91.4977 87.9943 94.0743 90.4296 95.8768 93.4651C97.1709 95.6349 98.1299 97.9663 99.5973 100.032C103.41 105.434 107.57 110.57 115.392 111.909C116.374 112.082 117.345 112.532 118.396 111.632C117.922 110.085 116.963 108.689 115.588 107.65C112.85 105.572 111.36 102.999 110.736 99.8938C109.985 96.1427 106.657 93.9613 103.687 91.6414C102.532 90.7296 101.111 89.9217 99.655 89.4947C94.3632 87.9596 92.5954 84.3125 91.8097 79.9728C91.4746 78.1145 91.1049 76.2794 90.7467 74.4212C90.3308 72.2744 89.2562 70.4046 87.7773 68.6734C86.1019 66.7228 85.8939 65.6841 86.8298 64.98C87.6617 64.3568 89.2216 64.7492 90.9894 66.2035C91.9946 67.0345 92.8843 68.004 93.7277 68.9735C96.8705 72.5283 99.8168 76.2101 101.631 80.469C102.659 82.8813 104.485 84.6472 106.9 85.9976C109.257 87.3133 111.648 88.5714 113.971 89.9217C117.079 91.7453 119.228 94.296 120.649 97.2969C121.1 98.2549 121.215 99.3513 121.412 100.39C121.55 101.106 121.527 101.856 121.631 102.571C122.105 105.769 123.815 108.065 127.212 109.624C130.805 111.274 134.526 112.382 138.42 113.201C139.667 113.467 140.938 113.813 142.082 114.309C144.74 115.487 147.293 116.849 149.951 118.026C155.231 120.369 158.686 124.593 163.099 127.825C164.382 128.76 165.699 129.671 167.109 130.445C167.941 130.906 168.969 131.299 169.94 130.503C170.841 129.764 170.344 128.967 170.02 128.24C168.31 124.397 165.78 120.957 162.822 117.795C162.106 117.033 160.823 116.652 159.76 116.168C155.786 114.39 151.776 112.682 147.802 110.893C144.601 109.439 142.718 106.853 140.973 104.257C136.421 97.4931 135.82 90.4873 140.187 83.5045C142.799 79.3264 142.29 75.3214 140.13 71.3165C138.743 68.7311 137.195 66.1804 135.381 63.8258C133.798 61.7714 134.11 59.6246 134.156 57.4432C134.179 56.4968 135.127 56.0236 136.178 56.4507C137.333 56.9239 138.431 57.5818 139.425 58.2974C145.086 62.3947 148.287 67.8655 150.494 73.8672C152.273 78.7032 152.897 83.5738 151.187 88.5713C150.84 89.587 151.014 90.8451 151.337 91.9069C152.47 95.7041 154.676 98.9243 158.085 101.567C160.511 103.46 162.556 105.734 164.879 107.742C166.658 109.277 168.472 110.847 170.529 112.082C174.966 114.76 178.016 118.164 179.01 122.885C179.183 123.681 179.599 124.443 179.772 125.239C180.581 129.152 183.574 131.391 187.282 133.261C191.234 135.246 195.197 137.254 198.848 139.62C201.436 141.294 203.62 143.499 205.815 145.599C207.999 147.688 210.391 149.454 213.522 150.262C214.343 150.47 215.244 150.458 216.503 150.585C215.66 148.762 215.07 147.319 214.342 145.934C212.644 142.679 212.378 139.32 213.106 135.846C213.73 132.822 213.083 129.96 211.165 127.409C209.628 125.366 208.103 123.266 206.208 121.488C200.662 116.295 200.038 110.316 202.338 103.887C203.308 101.163 204.706 98.5549 206 95.935C206.844 94.2037 207.826 92.5302 208.762 90.8451C209.051 90.3372 209.316 89.7486 209.779 89.4023C210.299 89.0215 211.154 88.5714 211.662 88.7099C212.182 88.8484 212.783 89.6678 212.794 90.1987C212.864 92.7148 212.91 95.254 212.632 97.747C212.39 99.94 211.673 102.075 211.223 104.257C210.818 106.23 211.512 107.892 212.875 109.508C215.533 112.659 218.179 115.833 220.512 119.18C223.655 123.704 224.441 128.771 223.182 133.884C221.968 138.789 222.881 143.118 225.978 147.215C226.232 147.55 226.532 147.896 226.671 148.277C228.392 152.951 232.286 156.067 236.469 159.011C237.185 159.518 237.867 160.107 238.41 160.753C239.045 161.515 239.311 162.415 238.468 163.235C237.578 164.101 236.596 163.72 235.683 163.258C233.442 162.115 231.246 160.869 228.947 159.83C227.838 159.322 226.532 158.93 225.307 158.907C219.068 158.757 213.21 157.118 207.422 155.352C205.376 154.729 203.562 153.413 201.783 152.247C200.397 151.335 198.987 150.597 197.254 150.516C194.85 150.424 192.413 150.216 190.032 150.447C188.438 150.597 186.809 151.255 185.422 151.993C180.662 154.544 176.063 157.349 171.257 159.83C168.796 161.1 166.104 162.219 163.342 162.819C158.397 163.904 153.313 164.493 148.31 165.382C142.937 166.34 137.588 166.051 132.215 165.416C129.453 165.093 126.646 165.162 123.861 165.035C119.54 164.828 116.397 162.785 113.74 159.98C112.977 159.172 112.538 158.272 113.127 157.268C113.797 156.148 114.988 155.998 116.258 156.241C120.707 157.083 124.982 156.598 129.037 154.856C134.607 152.455 140.476 153.044 146.311 153.355C151.707 153.644 157.103 154.013 162.452 153.09C164.151 152.801 165.849 152.27 167.421 151.601C171.881 149.72 176.029 147.4 179.761 144.503C182.383 142.471 185.549 142.056 188.935 142.541C190.518 142.771 192.135 143.095 193.776 142.367L193.695 142.31Z" fill="#443A35"/>
</svg>
