<svg width="247" height="737" viewBox="0 0 247 737" fill="none" xmlns="http://www.w3.org/2000/svg">
<path fill-rule="evenodd" clip-rule="evenodd" d="M308.881 532.058C297.738 514.492 287.811 496.341 276.814 478.678C259.782 451.428 252.629 422.134 257.495 391.041C260.366 372.598 265.768 354.156 271.85 336.055C282.701 303.939 283.529 272.456 274.624 240.778C269.369 222.141 266.595 202.92 262.654 183.991C260.464 173.432 262.118 163.165 265.768 152.654C275.792 123.701 282.215 94.4566 279.782 64.6279C279.101 56.307 281.047 47.7915 281.242 39.3246C281.436 31.7823 281.971 24.0453 280.463 16.7463C278.176 5.70045 270.536 -0.236109 261.68 0.00719226C252.921 0.250493 247.569 5.21379 243.384 16.9896C240.464 25.2131 237.788 33.4854 234.382 41.563C231.657 47.9861 226.742 52.2196 217.545 53.2415C199.687 55.2365 190.393 61.465 188.739 75.7711C185.77 101.561 186.403 127.448 194.14 152.168C199.298 168.663 208.008 184.235 215.112 200.195C227.131 227.153 239.005 254.257 240.61 283.599C241.389 298.197 239.394 313.087 238.031 327.831C237.545 332.94 235.063 338.439 227.131 338.585C219.881 338.78 218.713 333.622 217.448 329.096C213.653 315.666 209.224 302.382 206.256 288.806C203.385 275.667 196.524 264.573 187.181 254.111C175.649 241.216 164.116 228.175 154.092 214.404C148.302 206.424 144.847 197.081 141.635 188.03C135.602 170.853 130.93 153.287 124.994 136.061C121.88 127.059 114.24 123.847 102.902 125.599C97.8413 126.378 92.6347 127.156 87.866 128.811C66.6988 135.964 47.8672 136.888 33.3665 120.344C27.8679 114.115 18.2332 113.142 9.669 115.381C1.54275 117.522 1.10478 124.918 0.520859 130.563C-2.05813 155.963 4.80303 179.028 24.1698 198.443C41.0549 215.377 58.8158 231.532 84.6544 239.853C86.9901 240.583 89.2285 241.702 91.0776 243.016C116.527 260.875 142.171 278.587 167.182 296.883C173.021 301.165 177.644 306.907 181.391 312.649C189.031 324.23 196.184 336.103 202.558 348.268C206.305 355.421 208.835 363.207 210.246 370.993C210.684 373.523 206.451 377.854 203.093 379.654C198.519 382.136 194.189 379.897 191.756 376.248C189.323 372.647 187.376 368.803 184.992 365.202C164.7 335.033 138.765 309.389 99.7878 294.596C94.3865 292.552 88.4986 290.752 82.562 290.217C68.6939 288.903 59.3998 295.569 59.1565 307.199C59.0105 313.866 60.6162 320.532 61.6381 327.198C63.1952 337.514 60.811 346.468 49.2785 353.086C44.9964 355.519 41.1522 358.584 37.4054 361.65C29.863 367.83 25.1429 374.885 29.2791 383.45C32.6853 390.554 42.1253 393.717 55.4096 391.771C66.0662 390.213 76.5768 387.586 87.1847 385.591C98.2792 383.498 109.374 380.919 120.566 379.897C127.962 379.216 136.526 379.362 142.901 381.844C160.759 388.802 175.114 415.419 172.048 432.207C170.588 440.236 165.82 445.199 156.039 447.778C141.684 451.525 127.67 456.343 113.364 460.284C96.7221 464.858 84.3625 474.006 74.4844 485.539C62.2707 499.748 69.3265 512.983 89.8611 514.151C96.2842 514.492 103.243 513.372 109.52 511.669C115.846 509.917 121.685 506.803 127.573 503.981C143.436 496.39 157.645 498.872 167.036 511.134C167.863 512.205 168.642 513.226 169.275 514.346C172.194 519.552 176.33 523.494 184.213 522.812C192.826 522.083 196.962 517.071 198.811 510.988C200.563 505.246 201.536 499.31 202.023 493.47C203.385 477.996 208.884 463.739 221.925 448.557C225.866 453.91 229.662 457.121 230.927 461.063C234.139 471.087 237.058 481.305 238.615 491.67C243.384 523.445 244.017 555.318 235.209 587.482C230.878 603.248 229.321 619.403 226.742 635.412C224.066 651.908 230.635 664.9 249.029 671.323C264.211 676.627 267.276 686.603 267.666 698.476C267.86 705.191 267.471 712.052 268.201 718.67C269.125 726.747 273.845 732.927 283.821 735.166C293.991 737.453 303.333 735.458 310.535 728.548C314.623 724.655 318.759 720.276 320.705 715.604C324.355 706.748 327.615 697.551 328.929 688.403C331.41 671.129 332.724 653.757 333.892 636.434C336.374 599.404 329.659 564.271 309.027 531.863L308.881 532.058Z" fill="#443A35"/>
</svg>
