<svg width="154" height="370" viewBox="0 0 154 370" fill="none" xmlns="http://www.w3.org/2000/svg">
<path fill-rule="evenodd" clip-rule="evenodd" d="M-1.2871e-05 75.3393C2.6321 77.2141 4.75682 78.644 6.78641 80.201C13.0971 85.0943 19.4713 89.8607 25.56 95.0401C31.0463 99.6793 32.8539 105.685 31.0146 112.612C29.7778 117.283 28.6679 121.986 27.4628 126.688C26.6066 130.056 25.7186 133.425 24.799 136.983C40.5917 146.897 55.877 156.049 72.1136 163.135C79.5026 166.376 80.4222 168.409 76.6802 175.368C69.7352 188.332 62.378 201.011 55.211 213.816C53.4351 216.962 51.7544 220.171 49.8833 223.603C62.156 231.293 73.6992 238.315 85.0522 245.719C90.3799 249.182 95.6441 253.027 100.306 257.444C105.031 261.956 107.124 267.802 105.538 274.539C102.209 288.679 99.4813 303.009 95.6124 316.927C93.7731 323.505 95.6758 328.334 99.2276 333.355C99.9887 334.403 100.908 335.357 101.765 336.31C114.418 350.228 130.528 358.584 145.749 368.371C148.096 369.896 150.855 370.881 153.614 367.64C150.855 358.807 148.54 349.338 144.957 340.377C139.692 327.222 133.794 314.29 127.578 301.58C122.821 291.856 122.219 282.197 123.17 271.933C124.09 261.733 124.153 251.311 123.931 240.952C123.709 230.848 122.726 220.711 121.87 210.575C121.616 207.525 121.046 204.284 119.841 201.487C108.614 175.114 97.3883 148.709 85.7816 122.494C80.3588 110.229 74.3335 98.2494 63.2976 89.9878C60.8875 88.1766 58.8262 85.6346 56.9869 83.1243C45.0631 67.1731 32.9173 51.3808 29.1752 30.9175C28.8581 29.1381 28.2873 27.295 27.3359 25.7698C21.6594 16.4279 14.0485 8.96072 5.45449 9.13143e-05C5.86675 26.6278 5.7399 51.4125 0.0316993 75.3393L-1.2871e-05 75.3393Z" fill="#EDE7DB"/>
</svg>
