<svg width="323" height="493" viewBox="0 0 323 493" fill="none" xmlns="http://www.w3.org/2000/svg">
<path fill-rule="evenodd" clip-rule="evenodd" d="M316.473 337.668C314.092 334.505 311.748 331.193 309.926 327.621C307.322 322.561 307.843 316.719 307.991 310.877C308.177 304.663 307.024 298.486 301.333 295.919C295.939 293.463 290.397 296.216 286.007 300.347C277.489 308.347 267.631 314.635 260.489 324.421C256.137 330.412 251.971 330.97 247.061 326.542C242.783 322.71 238.542 318.505 235.418 313.593C229.466 304.254 227.122 293.277 226.936 281.556C226.899 278.542 227.792 275.379 230.507 274.523C234.822 273.184 239.472 272.03 243.75 272.328C252.603 272.96 261.196 275.156 270.049 275.677C278.196 276.16 286.602 276.16 294.786 274.895C307.099 273.035 312.902 261.537 307.954 250.337C307.359 249.035 306.913 247.621 306.206 246.393C303.342 241.444 302.858 235.825 303.342 229.909C303.528 227.639 303.751 225.369 303.751 223.1C303.788 209.295 296.572 202.56 283.366 203.974C274.29 204.941 266.069 208.848 258.741 214.988C247.656 224.29 236.757 233.816 225.858 243.379C217.079 251.081 205.25 252.495 195.987 247.249C190.594 244.198 189.515 238.988 189.738 232.997C189.961 227.118 194.834 225.407 198.628 223.732C207.854 219.639 217.228 216.03 226.639 212.569C234.599 209.63 241.63 204.867 248.251 199.36C249.925 197.983 251.19 195.862 252.268 193.89C256.36 186.225 258.741 178.262 257.96 169.704C257.737 167.286 258.369 164.718 258.518 162.188C259.224 152.513 259.15 143.099 254.351 134.876C251.599 130.15 247.619 128.104 242.188 128.364C231.475 128.923 222.77 133.909 215.926 143.285C214.103 145.778 212.243 148.271 210.681 150.913C203.576 163.044 192.416 170.858 182.856 180.383C181.071 182.207 178.021 182.951 175.491 183.472C166.638 185.369 158.082 183.807 149.564 182.69C148.113 182.504 146.625 181.239 145.733 179.974C141.529 174.206 137.698 168.216 140.376 158.132C143.873 156.941 147.704 155.602 151.573 154.337C157.115 152.551 162.918 151.509 168.238 149.016C181.071 142.988 191.896 133.574 200.079 121.369C203.65 116.048 205.51 109.276 207.259 102.95C209.751 93.9085 208.635 85.0526 207.407 76.1595C206.329 68.3455 203.018 62.3176 198.033 57.3315C191.003 50.2617 178.467 50.6711 170.804 58.6339C162.993 66.7456 158.045 76.3456 157.152 87.9177C156.557 95.6573 154.921 103.471 153.209 111.136C152.503 114.262 150.754 117.425 148.783 120.067C141.343 130.225 125.906 129.518 121.888 118.764C119.991 113.629 118.429 108.085 118.02 102.504C117.388 93.3131 117.648 83.9735 117.797 74.6712C118.094 57.3688 118.727 40.0292 118.875 22.7268C118.913 18.8198 118.02 14.8384 116.792 11.2291C114.337 4.04763 105.596 -1.23616 99.1603 0.252221C93.9898 1.44292 88.7077 2.44763 83.7975 4.60578C73.01 9.29417 62.3341 12.7918 51.0258 10.8569C49.0171 10.5221 46.748 11.1546 44.6277 11.4894C41.4287 11.9732 38.8992 13.5732 36.6301 16.4384C30.0088 24.7361 27.6653 34.0012 29.7112 43.564C32.5011 56.6617 35.6629 69.5734 44.6649 79.62C50.8026 86.5037 54.9688 95.434 61.1065 102.318C68.4718 110.615 76.9158 117.797 83.0163 127.397C86.4385 132.83 89.34 138.374 87.2197 145.63C81.3052 147.341 75.9114 147.602 71.15 144.551C67.0954 141.946 63.3013 138.895 59.2094 136.402C49.9843 130.82 41.0195 124.681 31.2363 120.29C23.9827 117.016 14.0507 119.918 9.21497 131.192C4.71398 141.685 6.5367 151.769 9.10338 161.258C11.2981 169.332 15.7247 176.513 19.2585 184.03C28.744 204.234 52.0302 210.374 71.6336 201.295C79.6313 197.574 85.955 191.174 91.2743 183.695C94.9941 178.448 98.6024 173.127 102.545 168.067C103.996 166.169 106.154 164.83 108.237 163.006C110.208 165.351 112.143 166.839 113.11 168.923C117.239 177.816 120.661 187.081 121.963 197.239C122.223 199.211 122.037 201.258 122.037 203.267C121.926 213.09 116.755 219.453 107.604 220.346C83.6487 222.653 59.6558 224.402 35.7001 227.118C28.2605 227.937 20.672 230.467 13.4184 233.295C3.97001 236.979 -0.605364 244.681 0.0642049 254.914C0.696575 264.7 4.4908 273.035 11.2609 279.063C17.287 284.421 23.8711 289.184 31.6827 291.714C37.5972 293.649 43.5118 295.621 49.2775 297.891C68.0998 305.295 86.0293 301.314 103.401 288.216C116.867 278.021 127.096 264.439 137.884 251.453C142.645 245.723 147.258 239.881 155.032 236.607C156.966 239.36 159.608 241.891 160.798 245.053C163.365 251.751 165.262 258.784 167.27 265.779C168.684 270.728 167.084 275.305 163.29 278.951C159.05 283.007 154.772 287.1 150.122 290.523C142.31 296.254 133.904 299.974 124.455 300.681C115.49 301.351 106.451 302.988 97.5237 304.961C92.6879 306.002 87.8149 308.161 83.2767 310.616C76.9902 314.002 73.9399 319.882 73.9399 327.063C73.9399 339.044 77.5481 348.942 85.7318 356.942C96.4449 367.398 108.162 374.654 124.195 372.384C132.788 371.156 140.339 367.51 146.737 360.514C154.065 352.44 159.608 343.212 164.927 333.723C170.767 323.379 176.868 313.221 183.191 303.175C185.2 299.975 188.064 297.072 191.003 294.84C198.703 289.072 204.989 290.449 209.453 298.263C216.074 309.872 216.818 323.268 216.446 336.961C216.409 338.933 215.628 340.979 214.959 342.914C210.532 355.417 202.497 359.324 191.672 354.375C188.734 353.035 185.795 351.435 182.67 350.914C168.647 348.496 164.034 353.296 159.868 364.161C157.636 369.928 154.772 375.473 152.986 381.314C149.936 391.212 143.092 395.863 134.536 398.803C131.523 399.807 128.51 400.887 125.608 402.226C117.722 405.984 113.816 412.496 113.258 421.798C112.775 430.022 116.495 434.487 123.228 437.166C132.602 440.887 142.459 442.524 152.689 442.04C161.616 441.631 170.767 441.408 179.36 436.459C185.2 433.11 191.226 430.096 196.843 426.301C209.193 418.003 218.753 407.547 221.617 391.77C222.473 387.082 224.37 382.393 226.49 378.003C229.131 372.607 232.219 372.049 236.124 375.733C237.463 376.998 238.691 378.486 239.584 380.124C243.043 386.635 247.209 392.849 249.516 399.919C256.137 420.161 262.2 440.626 268.003 461.203C269.9 467.901 270.235 475.231 271.351 482.264C271.574 483.715 271.872 485.203 272.393 486.505C274.253 491.454 278.27 493.799 282.808 492.757C286.602 491.864 289.69 487.585 289.764 482.078C289.764 476.571 289.69 470.989 288.648 465.743C286.937 457.11 284.556 448.664 282.213 440.254C277.414 423.212 273.285 405.835 263.688 391.138C261.494 387.789 261.047 382.914 260.564 378.524C260.192 375.398 260.675 371.566 264.321 370.04C267.631 368.663 270.979 368.998 273.546 371.566C276.67 374.691 279.423 378.338 282.845 381.017C286.974 384.291 291.438 387.194 296.162 389.463C299.957 391.287 304.606 391.212 308.512 388.384C314.092 384.366 319.151 379.417 320.974 372.235C324.21 359.584 324.135 347.64 316.547 337.482L316.473 337.668Z" fill="#E4DDCC"/>
</svg>
