<svg width="239" height="166" viewBox="0 0 239 166" fill="none" xmlns="http://www.w3.org/2000/svg">
<path fill-rule="evenodd" clip-rule="evenodd" d="M45.3049 142.31C49.7418 140.475 54.1671 138.766 59.0314 138.339C61.8968 138.085 64.7854 137.924 67.6624 137.762C70.9785 137.578 74.2483 137.935 77.1022 139.47C82.9718 142.621 89.2689 143.949 96.0628 143.256C103.261 142.517 109.373 144.999 115.254 148.058C121.008 151.058 127.201 152.94 133.718 154.013C136.861 154.532 140.038 154.036 143.1 153.263C147.907 152.063 152.228 150.02 156.156 147.319C156.942 146.776 157.624 146.118 158.698 145.23C157.497 144.803 156.711 144.387 155.868 144.249C151.038 143.452 146.208 142.644 141.355 142.021C138.34 141.629 135.266 141.49 132.216 141.363C127.629 141.179 123.862 139.332 120.338 136.977C117.681 135.2 115.173 133.226 112.412 131.576C110.598 130.491 108.53 129.648 106.438 129.048C99.3904 127.04 92.2267 126.786 85.0053 128.333C84.7743 128.379 84.5085 128.275 84.0232 128.217C89.9968 122.943 96.2823 118.638 105.225 119.238C107.525 119.388 109.835 119.653 112.112 120C116.04 120.611 119.945 121.292 123.851 122.031C131.199 123.416 138.559 124.801 145.03 128.448C145.654 128.794 146.358 129.048 147.04 129.279C152.563 131.195 158.086 133.088 163.609 134.992C166.232 135.904 168.947 136.239 171.778 136.285C178.317 136.389 184.742 135.869 191.096 134.438C196.538 133.203 201.287 130.941 205.389 127.594C206.799 126.44 207.584 125.159 206.429 123.335C202.454 124.074 198.664 123.416 194.875 122.1C190.08 120.45 184.973 121.027 179.958 121.073C176.631 121.108 173.314 121.234 169.998 121.119C168.554 121.073 167.064 120.669 165.723 120.161C162.488 118.938 159.264 117.645 156.145 116.214C150.472 113.605 144.544 112.924 138.317 114.125C136.41 114.494 134.515 114.875 132.632 115.267C131.419 115.521 131.419 115.544 130.09 114.46C131.049 113.236 132.597 112.601 134.042 112.382C138.964 111.632 142.257 108.781 145.642 105.965C145.977 105.688 146.301 105.388 146.613 105.088C150.31 101.59 154.885 101.29 159.299 103.299C166.96 106.796 174.689 106.38 182.627 104.707C186.868 103.806 190.542 101.856 193.893 99.5014C197.37 97.0661 201.391 95.6234 205.47 94.2499C207.134 93.6843 208.566 94.4346 210.034 94.8385C211.802 95.3233 213.477 96.0966 215.245 96.5467C216.562 96.8814 217.972 96.9507 219.347 97.0661C221.033 97.2046 222.212 96.5813 222.79 94.8385C220.306 92.1839 217.567 89.587 213.581 88.2943C212.888 88.0751 212.194 87.8442 211.513 87.5788C203.344 84.3817 195.579 84.5895 188.647 89.991C185.966 92.08 182.789 93.442 179.889 95.1963C176.596 97.1931 172.968 96.7083 169.386 96.2813C165.434 95.808 161.518 95.1271 157.566 94.6769C156.226 94.5269 154.816 94.8039 153.222 94.55C154.261 94.0191 155.278 93.4304 156.353 92.9803C159.784 91.526 163.285 90.1872 166.682 88.6752C169.894 87.244 172.979 85.6051 176.18 84.1624C177.821 83.4122 179.565 82.8236 181.31 82.258C183.494 81.554 185.77 81.0692 187.896 80.2728C190.969 79.1186 194.239 79.2226 197.44 78.8994C201.31 78.507 205.273 78.4377 208.855 76.9603C210.831 76.1409 212.899 75.1252 214.344 73.7402C220.213 68.1079 227.388 64.3452 235.407 61.6791C236.274 61.3905 237.105 61.0443 237.926 60.6634C239.023 60.1671 239.047 59.2553 238.977 58.3204C238.896 57.2701 238.018 56.9931 237.082 56.8315C232.045 55.9313 227.123 56.116 222.328 57.905C220.363 58.6436 218.376 59.3476 216.377 60.0055C213.05 61.102 210.011 62.5678 207.249 64.6107C202.408 68.1886 196.423 69.8968 190.657 71.9512C185.342 72.0551 180.698 73.6709 176.434 77.2143C176.7 75.1483 177.405 73.8787 178.629 72.713C180.628 70.7855 182.431 68.708 184.43 66.7806C186.96 64.3222 188.289 61.4021 188.855 58.205C190.01 51.6839 194.089 46.7095 199.647 42.6468C204.361 39.1958 207.076 34.9022 207.584 29.6161C208.324 21.9409 210.172 14.4503 211.802 6.9135C212.252 4.80136 212.876 2.64306 212.275 2.33634e-06C211.074 0.530923 210.045 0.831 209.213 1.36192C205.401 3.80877 203.228 7.30591 201.38 11.0224C199.184 15.4313 198.584 20.1634 197.717 24.8263C196.7 30.2856 194.274 35.1331 190.542 39.542C188.497 41.9658 186.498 44.4473 184.661 46.998C182.038 50.6336 180.582 54.6848 179.877 58.9321C179.508 61.1135 178.433 62.9256 176.827 64.5876C174.539 66.9421 172.459 69.4698 170.079 71.7435C168.231 73.4978 167.283 75.5754 166.417 77.7337C165.354 80.3767 163.852 82.7889 161.749 84.8895C161.136 85.5012 160.293 85.9283 159.553 86.4361C159.334 86.2976 159.126 86.1476 158.906 86.0091C159.264 85.3397 159.449 84.5318 160.004 84.0124C162.996 81.1616 164.175 77.7106 164.545 73.9595C164.88 70.5778 166.174 67.4615 167.826 64.4029C170.264 59.8786 173.164 55.6197 176.503 51.5685C179.843 47.5174 181.541 42.8891 182.396 37.9608C183.101 33.9328 184.106 29.9393 184.938 25.9343C185.181 24.7686 185.781 23.4528 184.349 22.5641C183.482 22.0216 182.442 22.6565 181.229 24.4223C179.981 26.2459 178.756 28.0811 177.647 29.9624C174.47 35.3293 171.2 40.65 168.265 46.1208C166.532 49.3525 165.388 52.8266 163.967 56.1852C163.609 57.0162 163.285 57.8703 162.789 58.6436C161.541 60.5595 160.223 62.4293 158.895 64.2991C156.884 67.1383 156.018 70.2546 155.532 73.5556C155.059 76.7757 154.181 79.9612 153.406 83.1467C153.083 84.474 152.182 85.4897 150.83 86.2169C147.502 87.9943 144.926 90.4296 143.123 93.4651C141.829 95.6349 140.87 97.9663 139.403 100.032C135.59 105.434 131.43 110.57 123.608 111.909C122.626 112.082 121.655 112.532 120.604 111.632C121.078 110.085 122.037 108.689 123.412 107.65C126.15 105.572 127.641 102.999 128.264 99.8938C129.015 96.1427 132.343 93.9613 135.313 91.6415C136.468 90.7297 137.889 89.9217 139.345 89.4947C144.637 87.9597 146.405 84.3125 147.19 79.9728C147.525 78.1145 147.895 76.2794 148.253 74.4212C148.669 72.2744 149.744 70.4046 151.223 68.6734C152.898 66.7228 153.106 65.6841 152.17 64.98C151.338 64.3568 149.778 64.7492 148.011 66.2035C147.005 67.0345 146.116 68.004 145.272 68.9735C142.13 72.5283 139.183 76.2101 137.369 80.4691C136.341 82.8813 134.515 84.6472 132.1 85.9976C129.743 87.3133 127.352 88.5714 125.029 89.9217C121.921 91.7453 119.772 94.296 118.351 97.2969C117.9 98.2549 117.785 99.3514 117.588 100.39C117.45 101.106 117.473 101.856 117.369 102.571C116.895 105.769 115.185 108.065 111.788 109.624C108.195 111.274 104.474 112.382 100.58 113.201C99.3326 113.467 98.0616 113.813 96.9178 114.309C94.2603 115.487 91.7068 116.849 89.0493 118.026C83.769 120.369 80.3143 124.593 75.9006 127.825C74.6181 128.76 73.3009 129.672 71.8913 130.445C71.0594 130.906 70.031 131.299 69.0605 130.503C68.1593 129.764 68.6561 128.967 68.9796 128.24C70.6896 124.397 73.22 120.957 76.1779 117.795C76.8943 117.033 78.1768 116.652 79.2398 116.168C83.2144 114.39 87.2237 112.682 91.1984 110.893C94.399 109.439 96.2823 106.853 98.027 104.257C102.579 97.4931 103.18 90.4873 98.8127 83.5045C96.2014 79.3264 96.7098 75.3214 98.8704 71.3165C100.257 68.7311 101.805 66.1804 103.619 63.8258C105.202 61.7714 104.89 59.6246 104.844 57.4433C104.821 56.4968 103.873 56.0236 102.822 56.4507C101.667 56.9239 100.569 57.5818 99.5752 58.2974C93.9137 62.3947 90.7131 67.8655 88.5063 73.8672C86.7269 78.7032 86.103 83.5738 87.813 88.5713C88.1596 89.587 87.9863 90.8451 87.6628 91.9069C86.5305 95.7042 84.3236 98.9243 80.9151 101.567C78.4887 103.46 76.4436 105.734 74.1212 107.742C72.3419 109.277 70.5279 110.847 68.4712 112.082C64.0344 114.76 60.984 118.164 59.9904 122.885C59.8171 123.681 59.4011 124.443 59.2278 125.239C58.419 129.152 55.4265 131.391 51.7176 133.261C47.766 135.246 43.8029 137.254 40.1517 139.621C37.5636 141.294 35.3798 143.499 33.1845 145.599C31.0008 147.688 28.6091 149.454 25.4779 150.262C24.6575 150.47 23.7563 150.458 22.4969 150.585C23.3403 148.762 23.9296 147.319 24.6575 145.934C26.356 142.679 26.6217 139.32 25.8938 135.846C25.2699 132.822 25.9169 129.96 27.8349 127.409C29.3717 125.366 30.8968 123.266 32.7917 121.488C38.3377 116.295 38.9617 110.316 36.6624 103.887C35.6918 101.163 34.2937 98.555 32.9997 95.935C32.1562 94.2037 31.1741 92.5302 30.2382 90.8451C29.9493 90.3372 29.6836 89.7486 29.2214 89.4024C28.7015 89.0215 27.8465 88.5714 27.3381 88.7099C26.8181 88.8484 26.2173 89.6678 26.2058 90.1987C26.1365 92.7148 26.0902 95.254 26.3675 97.7471C26.6102 99.94 27.3265 102.075 27.7772 104.257C28.1816 106.23 27.4883 107.892 26.1249 109.508C23.4674 112.659 20.8215 115.833 18.4875 119.18C15.3448 123.704 14.5591 128.771 15.8185 133.884C17.0317 138.789 16.1189 143.118 13.0224 147.215C12.7682 147.55 12.4678 147.896 12.3291 148.277C10.6075 152.951 6.71376 156.067 2.53113 159.011C1.81476 159.518 1.13307 160.107 0.59001 160.753C-0.0454723 161.515 -0.311219 162.415 0.532241 163.235C1.42192 164.101 2.40404 163.72 3.31682 163.258C5.55835 162.115 7.75366 160.869 10.0529 159.83C11.1622 159.322 12.4678 158.93 13.6925 158.907C19.9318 158.757 25.7898 157.118 31.5785 155.352C33.6236 154.729 35.4376 153.413 37.217 152.247C38.6035 151.335 40.0131 150.597 41.7462 150.516C44.1495 150.424 46.5875 150.216 48.9676 150.447C50.5621 150.597 52.1913 151.255 53.5778 151.993C58.3381 154.544 62.9367 157.349 67.7433 159.83C70.2043 161.1 72.8965 162.219 75.658 162.819C80.6032 163.904 85.687 164.493 90.69 165.382C96.0628 166.34 101.412 166.051 106.785 165.416C109.547 165.093 112.354 165.162 115.139 165.035C119.46 164.828 122.603 162.785 125.26 159.98C126.023 159.172 126.462 158.272 125.873 157.268C125.203 156.148 124.012 155.998 122.742 156.241C118.293 157.083 114.018 156.598 109.963 154.856C104.393 152.455 98.5238 153.044 92.6889 153.355C87.2931 153.644 81.8972 154.013 76.5476 153.09C74.8491 152.801 73.1507 152.27 71.5793 151.601C67.1194 149.72 62.9714 147.4 59.2394 144.503C56.6166 142.471 53.4507 142.056 50.0653 142.541C48.4824 142.771 46.8648 143.095 45.2241 142.367L45.3049 142.31Z" fill="#443A35"/>
</svg>
