<svg width="109" height="395" viewBox="0 0 109 395" fill="none" xmlns="http://www.w3.org/2000/svg">
<path fill-rule="evenodd" clip-rule="evenodd" d="M11.4093 395C8.6515 388.395 5.71577 382.836 4.51479 376.275C3.20261 369.137 4.80392 363.51 8.7627 357.639C15.635 347.432 21.8623 336.802 28.2675 326.283C29.6686 323.993 30.6472 321.457 32.0706 318.522C27.667 318.477 24.242 319.945 20.7725 321.102C19.4826 321.524 18.3038 322.28 17.0361 322.792C11.0312 325.238 10.3862 325.082 6.02714 320.301C4.09223 318.166 2.15732 316.053 0 313.674C3.38053 310.271 6.4497 307.113 9.5856 304.022C16.9472 296.773 23.0188 288.656 27.8672 279.449C32.8935 269.953 38.9429 260.969 44.1694 251.562C47.9057 244.868 51.0416 237.863 54.7335 230.435C50.6858 231.903 48.6619 233.504 43.1685 239.976C39.9882 243.734 37.0747 247.715 33.7831 251.94C28.4009 249.827 23.5748 246.869 19.4603 243.111C17.1251 240.976 17.1251 237.64 18.1259 234.46C22.5517 220.628 26.8886 206.773 31.3367 192.963C35.2065 180.932 39.1653 168.946 43.0796 156.915C43.3465 156.114 43.4354 155.269 43.7245 154.046C42.0565 153.179 40.3663 152.445 38.8094 151.466C31.7148 147.041 24.6201 142.615 17.5921 138.079C15.079 136.455 13.5221 134.12 12.6103 131.163C10.0304 122.667 7.31708 114.195 4.51479 105.766C3.8031 103.631 3.86982 101.874 4.9596 99.9175C10.8311 89.243 14.8788 77.8569 18.3928 66.1817C22.1959 53.5947 26.7552 41.2524 31.181 28.8433C33.8276 21.4157 35.9182 13.8768 37.008 6.04887C37.2526 4.22532 37.7864 2.46847 38.3424 0C39.5878 0.956255 40.4107 1.40101 41.0335 2.06816C44.3918 5.71528 47.6389 9.47361 51.0416 13.0762C52.3316 14.4328 52.7986 15.7004 52.5317 17.6351C48.7064 45.0774 44.2583 72.3863 33.8721 98.3164C33.1826 100.051 33.405 102.253 33.5385 104.21C34.0945 112.593 38.0088 117.953 46.3489 121.066C52.9765 123.535 58.8257 128.116 65.0753 131.652C67.4772 133.008 68.7227 134.988 69.6123 137.523C71.4583 142.838 73.4154 148.131 75.6839 153.29C76.796 155.825 76.9516 158.027 76.1732 160.651C72.4591 173.349 67.0102 185.291 60.9386 197.011C60.2269 198.367 59.5374 199.746 58.8925 201.147C58.7813 201.392 58.9592 201.748 59.1149 202.882C61.7392 201.214 64.3636 200.013 66.3652 198.145C69.9904 194.787 73.282 191.051 76.6625 187.404C79.1979 184.668 80.0208 184.78 82.8231 187.359C86.3371 190.584 90.0512 193.542 94.0767 196.944C92.6978 200.48 91.3856 204.149 89.8511 207.73C86.515 215.602 83.2902 223.519 79.6427 231.236C75.8619 239.264 71.7474 247.136 67.544 254.964C63.0959 263.237 58.3142 271.332 53.8217 279.582C51.909 283.096 53.7772 286.521 54.4666 290.101C66.1651 283.63 77.6411 277.292 89.2506 270.887C95.9894 276.113 102.395 281.117 109 286.254C108.088 287.521 107.51 288.567 106.709 289.389C99.748 296.528 92.2975 303.044 83.4458 307.781C78.6864 310.338 74.6164 313.674 71.3915 317.966C54.7335 340.115 38.1422 362.265 21.5064 384.437C19.7717 386.772 18.1259 389.174 16.191 391.331C15.0345 392.621 13.3887 393.51 11.4315 394.956L11.4093 395Z" fill="#E4DDCC"/>
</svg>
