<svg width="58" height="57" viewBox="0 0 58 57" fill="none" xmlns="http://www.w3.org/2000/svg">
<path fill-rule="evenodd" clip-rule="evenodd" d="M57.84 30.98C57.84 30.82 57.84 30.65 57.82 30.49C50.39 28.2 42.97 25.91 35.25 23.53C39.53 15.65 43.68 8.02 47.83 0.389999C47.67 0.259999 47.51 0.13 47.35 0C41.11 6.76 34.88 13.52 28.47 20.46C24.37 14.29 20.47 8.42 16.57 2.55C16.42 2.59 16.27 2.63 16.13 2.68C17.46 9 18.79 15.33 20.15 21.84C13.31 22.64 6.65 23.41 0 24.19C6.52 26.04 12.95 27.02 19.59 28.68C16.23 35.95 12.7 42.71 9.53 49.69C9.67 49.79 9.8 49.9 9.94 50C16.31 44.77 22.68 39.54 29.22 34.17C30.08 36.33 30.83 38.18 31.56 40.03C32.33 41.96 33.09 43.9 33.85 45.84C34.58 47.7 35.31 49.56 36.05 51.41C36.79 53.25 37.54 55.08 38.29 56.92C38.45 56.89 38.61 56.86 38.77 56.82C37.79 48.32 36.81 39.83 35.82 31.19C43.35 31.12 50.6 31.05 57.84 30.99V30.98Z" fill="#E4DDCC"/>
</svg>
